<svg width="44" height="36" viewBox="0 0 44 36" fill="none" xmlns="http://www.w3.org/2000/svg">
<path d="M38.7391 6.52164H34.1478L31.613 2.69555C30.6565 1.26077 28.9826 0.399902 27.2609 0.399902H16.7391C15.0174 0.399902 13.3435 1.26077 12.387 2.69555L9.85217 6.52164H5.26087C2.34348 6.52164 0 8.86512 0 11.7825V30.339C0 33.2564 2.34348 35.5999 5.26087 35.5999H38.7391C41.6565 35.5999 44 33.2564 44 30.339V11.7825C44 8.86512 41.6565 6.52164 38.7391 6.52164ZM22 31.2956C15.4478 31.2956 10.1391 25.9869 10.1391 19.4347C10.1391 12.8825 15.4478 7.62164 22 7.62164C28.5522 7.62164 33.8609 12.9303 33.8609 19.4825C33.8609 25.9869 28.5522 31.2956 22 31.2956ZM38.0696 13.9347C38.0217 13.9347 37.9739 13.9347 37.8783 13.9347H35.9652C35.1043 13.8869 34.4348 13.1695 34.4826 12.3086C34.5304 11.4956 35.1522 10.8738 35.9652 10.826H37.8783C38.7391 10.7782 39.4565 11.4477 39.5043 12.3086C39.5522 13.1695 38.9304 13.8869 38.0696 13.9347Z" fill="#001038"/>
<path d="M21.9999 12.8826C18.3651 12.8826 15.3999 15.8478 15.3999 19.4826C15.3999 23.1173 18.3651 26.0347 21.9999 26.0347C25.6347 26.0347 28.5999 23.0695 28.5999 19.4347C28.5999 15.8 25.6347 12.8826 21.9999 12.8826Z" fill="#001038"/>
</svg>
