<svg width="264" height="263" viewBox="0 0 264 263" fill="none" xmlns="http://www.w3.org/2000/svg">
<path d="M2.8637 147.294C-3.11443 118.481 0.814296 88.0421 12.7965 60.8836C24.7787 33.7252 44.7363 9.37575 69.2712 2.4424C93.3343 -4.41352 122.249 6.34377 154.589 12.9055C186.654 19.2702 222.341 21.1648 242.638 39.8766C262.739 58.8629 267.648 94.3919 260.339 124.901C252.833 155.685 233.306 181.175 210.674 206.932C188.042 232.69 162.423 257.968 133.293 262.022C104.438 266.273 72.2687 249.026 48.4383 226.533C24.3331 203.844 8.64496 176.382 2.8637 147.294Z" fill="url(#paint0_linear)"/>
<defs>
<linearGradient id="paint0_linear" x1="302.701" y1="82.4649" x2="-59.9014" y2="131.187" gradientUnits="userSpaceOnUse">
<stop stop-color="#000F38"/>
<stop offset="1" stop-color="#003974"/>
</linearGradient>
</defs>
</svg>
